<svg width="1325" height="1325" viewBox="0 0 1325 1325" fill="none" xmlns="http://www.w3.org/2000/svg">
<g clip-path="url(#clip0_7_45)">
<path d="M492 1322.5L396.731 1322.5C390.359 1322.5 384.491 1319.04 381.411 1313.46L137.553 871.727C126.316 851.373 95.3559 859.352 95.3555 882.601L95.3555 1305C95.3555 1314.66 87.5203 1322.5 77.8555 1322.5L20 1322.5C10.335 1322.5 2.5 1314.66 2.5 1305L2.50006 683C2.50009 673.335 10.3351 665.5 20.0001 665.5L115.346 665.5C121.682 665.5 127.523 668.925 130.617 674.454L374.51 1110.31C385.829 1130.54 416.645 1122.51 416.645 1099.33L416.645 683C416.645 673.335 424.48 665.5 434.145 665.5L492 665.5C501.665 665.5 509.5 673.335 509.5 683L509.5 1305C509.5 1314.66 501.665 1322.5 492 1322.5Z" fill="#FDFAF6" stroke="#45474B" stroke-width="5"/>
<path d="M578.077 1108.57H582.923C592.588 1108.57 600.423 1116.4 600.423 1126.07V1305C600.423 1314.66 592.588 1322.5 582.923 1322.5H578.077C568.412 1322.5 560.577 1314.66 560.577 1305V1126.07C560.577 1116.4 568.412 1108.57 578.077 1108.57ZM580.5 1021.5C587.457 1021.5 593.307 1023.92 598.194 1028.8C603.082 1033.68 605.5 1039.53 605.5 1046.47C605.5 1053.42 603.082 1059.26 598.194 1064.15C593.307 1069.03 587.457 1071.44 580.5 1071.44C573.543 1071.44 567.693 1069.03 562.806 1064.15C557.918 1059.26 555.5 1053.42 555.5 1046.47C555.5 1039.53 557.918 1033.68 562.806 1028.8C567.693 1023.92 573.543 1021.5 580.5 1021.5Z" fill="#FDFAF6" stroke="#45474B" stroke-width="5"/>
<path d="M665.5 1305L665.5 953.909C665.5 928.486 674.492 906.779 692.541 888.652C710.584 870.532 732.342 861.5 757.955 861.5L899.492 861.5C929.78 861.5 955.545 869.134 976.912 884.297C986.747 891.276 1000.31 891.176 1010.09 884.165C1031.12 869.098 1056.92 861.5 1087.61 861.5L1157.48 861.5C1187.8 861.5 1215.42 869.032 1240.4 884.081L1240.42 884.093C1265.43 898.87 1285.28 918.805 1300 943.928L1300.01 943.942L1300.02 943.958C1315 968.737 1322.5 996.324 1322.5 1026.78L1322.5 1305C1322.5 1314.67 1314.66 1322.5 1305 1322.5L1250.94 1322.5C1241.28 1322.5 1233.44 1314.66 1233.44 1305L1233.44 1028.13C1233.44 1006.8 1226.03 988.623 1211.23 973.754C1196.43 958.584 1178.47 950.959 1157.48 950.959L1087.61 950.959C1074.32 950.959 1062.82 955.095 1053.26 963.387L1052.34 964.202C1042.59 972.74 1037.63 983.299 1037.63 995.741L1037.63 1305C1037.63 1314.66 1029.8 1322.5 1020.13 1322.5L965.627 1322.5C955.962 1322.5 948.127 1314.66 948.127 1305L948.127 995.741C948.127 983.314 943.328 972.753 933.865 964.2C924.427 955.369 912.919 950.959 899.492 950.959L777.508 950.959C765.082 950.959 755.008 961.033 755.008 973.459L755.008 1305C755.008 1314.66 747.173 1322.5 737.508 1322.5L683 1322.5C673.335 1322.5 665.5 1314.66 665.5 1305Z" fill="#FDFAF6" stroke="#45474B" stroke-width="5"/>
<path d="M1111.9 397.5H1161.1C1168.5 397.5 1175.1 402.153 1177.58 409.121L1313.12 789.121C1317.18 800.517 1308.73 812.5 1296.63 812.5H1272.83C1265.45 812.5 1258.87 807.877 1256.37 800.94L1220.28 700.949C1217.07 692.031 1208.6 686.087 1199.12 686.087H1124.8C1112.68 686.087 1104.23 674.056 1108.34 662.65L1116.28 640.625C1118.78 633.686 1125.37 629.062 1132.74 629.062H1162.32C1177.91 629.062 1188.77 613.588 1183.48 598.923L1157.79 527.738C1150.64 507.93 1122.63 507.92 1115.47 527.723L1016.64 800.952C1014.13 807.883 1007.55 812.5 1000.18 812.5H976.367C964.269 812.5 955.82 800.517 959.885 789.121L1095.42 409.121C1097.9 402.153 1104.5 397.5 1111.9 397.5Z" fill="#FDFAF6" stroke="#45474B" stroke-width="5"/>
<path d="M509.5 174.684L509.5 448.063C509.5 479.357 501.658 507.874 485.987 533.671C470.293 559.507 449.082 580.175 422.318 595.691C395.898 610.888 366.563 618.5 334.259 618.5L20 618.5C10.335 618.5 2.49997 610.665 2.49997 601L2.5 20C2.50001 10.335 10.335 2.50002 20 2.5L334.259 2.50002C366.557 2.50002 395.888 10.2544 422.308 25.7393L422.317 25.7451C449.075 41.2578 470.285 62.0663 485.981 88.1924L485.987 88.2031C501.654 113.993 509.5 142.799 509.5 174.684ZM421.65 174.684C421.65 151.015 413.129 130.866 396.147 114.386C379.164 97.6114 358.485 89.209 334.259 89.209L113.292 89.209C100.866 89.209 90.792 99.2826 90.792 111.709L90.792 508.854C90.792 521.281 100.866 531.354 113.292 531.354L334.259 531.355C358.471 531.355 379.145 523.108 396.131 506.63C413.116 490.153 421.65 470.148 421.65 446.753L421.65 174.684Z" fill="#FDFAF6" stroke="#45474B" stroke-width="5"/>
<path d="M639.821 406.5L809.536 406.5C830.836 406.5 850.019 411.806 867.15 422.393L867.169 422.403L867.187 422.415C884.621 432.771 898.459 446.87 908.725 464.752L908.746 464.789C919.242 482.367 924.5 501.889 924.5 523.412L924.5 534.917C924.5 556.17 919.244 575.56 908.746 593.143L908.741 593.152C898.479 610.511 884.633 624.497 867.174 635.129C850.04 645.459 830.848 650.639 809.536 650.639L703.036 650.639C693.371 650.639 685.536 642.804 685.536 633.139L685.536 589.828C685.536 580.163 693.371 572.328 703.036 572.328L810.321 572.328C820.44 572.328 829.081 568.605 836.097 561.237L836.096 561.236C843.351 553.893 847 544.94 847 534.521L847 523.412C847 513.065 843.579 504.198 836.735 496.959L836.062 496.263C829.053 488.918 820.423 485.207 810.321 485.207L655.893 485.207C643.466 485.207 633.393 495.281 633.393 507.707L633.393 698.762C633.393 708.375 636.637 716.666 643.115 723.492C649.604 730.33 657.59 733.792 666.929 733.792L878.321 733.792C887.986 733.792 895.821 741.627 895.821 751.292L895.821 795C895.821 804.665 887.986 812.5 878.321 812.5L666.929 812.5C646.729 812.5 628.319 807.611 611.645 797.85L610.853 797.381C593.929 787.018 580.479 773.304 570.478 756.213C560.496 738.89 555.5 719.888 555.5 699.158L555.5 488.897C555.5 466.041 563.734 446.723 580.271 430.794L580.284 430.78C596.84 414.576 616.641 406.5 639.821 406.5Z" fill="#FDFAF6" stroke="#45474B" stroke-width="5"/>
<path d="M581.401 8.50002L594.756 8.50002C602.154 8.50014 608.752 13.1517 611.238 20.1192L690.91 243.429C698.02 263.356 726.204 263.345 733.299 243.413L812.769 20.1319C815.251 13.1577 821.853 8.50002 829.256 8.50002H842.599C854.706 8.50019 863.154 20.4987 859.074 31.8975L747.036 344.897C744.545 351.856 737.952 356.5 730.561 356.5H693.439C686.048 356.5 679.455 351.856 676.964 344.897L564.926 31.8975C560.846 20.4987 569.294 8.50021 581.401 8.50002Z" fill="#FDFAF6" stroke="#45474B" stroke-width="5"/>
</g>
<defs>
<clipPath id="clip0_7_45">
<rect width="1325" height="1325" fill="white"/>
</clipPath>
</defs>
</svg>
