<svg width="1621" height="1621" viewBox="0 0 1621 1621" fill="none" xmlns="http://www.w3.org/2000/svg">
<rect width="1621" height="1621" fill="white"/>
<path d="M31 1149.33H297.159L652.099 794.46L650.075 792.436H387.964L31 1149.33Z" fill="#D9D9D9"/>
<path d="M951.332 1093.63C941.669 1081.82 936.262 1068.59 936.262 1054.63C936.262 1005.94 1002.04 966.194 1084.63 963.943L913.102 792.436H654.123L652.099 794.46L951.332 1093.63Z" fill="#D9D9D9"/>
<path d="M959.742 1102.05L1091.26 970.561L1084.63 963.943C1002.04 966.194 936.262 1005.94 936.262 1054.63C936.262 1068.59 941.669 1081.82 951.332 1093.63L959.742 1102.05Z" fill="#D9D9D9"/>
<path d="M1092.04 1145.42C1144.89 1145.42 1191.59 1130.08 1219.75 1106.64L1223.56 1102.83L1091.26 970.561L959.742 1102.05L964.324 1106.64C992.496 1130.08 1039.2 1145.42 1092.04 1145.42Z" fill="#D9D9D9"/>
<path d="M1247.82 1054.63C1247.82 1005.64 1181.23 965.705 1097.91 963.904L1091.26 970.561L1223.56 1102.83L1232.76 1093.63C1242.41 1081.82 1247.82 1068.59 1247.82 1054.63Z" fill="#D9D9D9"/>
<path d="M1534.02 792.436H1269.42L1097.91 963.904C1181.23 965.705 1247.82 1005.64 1247.82 1054.63C1247.82 1068.59 1242.41 1081.82 1232.76 1093.63L1534.02 792.436Z" fill="#D9D9D9"/>
<path d="M1269.42 792.436H1534.02L1589.92 736.543V472L1269.42 792.436Z" fill="#D9D9D9"/>
</svg>
