<svg width="1325" height="1325" viewBox="0 0 1325 1325" fill="none" xmlns="http://www.w3.org/2000/svg">
<mask id="mask0_4_29" style="mask-type:alpha" maskUnits="userSpaceOnUse" x="0" y="0" width="1325" height="1325">
<path d="M512 1305C512 1316.05 503.046 1325 492 1325L396.732 1325C389.449 1325 382.742 1321.04 379.223 1314.67L135.364 872.935C125.376 854.843 97.8551 861.935 97.8551 882.601L97.855 1305C97.855 1316.05 88.9007 1325 77.855 1325L20 1325C8.95427 1325 -5.29657e-05 1316.05 -5.2e-05 1305L2.37693e-06 683C3.34257e-06 671.954 8.95431 663 20 663L115.346 663C122.587 663 129.263 666.914 132.799 673.234L376.692 1109.09C386.753 1127.07 414.145 1119.93 414.145 1099.33L414.145 683C414.145 671.954 423.099 663 434.145 663L492 663C503.046 663 512 671.954 512 683L512 1305Z" fill="#45474B"/>
<path d="M553 1046.47C553 1038.86 555.679 1032.38 561.038 1027.03C566.397 1021.68 572.885 1019 580.5 1019C588.115 1019 594.603 1021.68 599.962 1027.03C605.321 1032.38 608 1038.86 608 1046.47C608 1054.08 605.321 1060.56 599.962 1065.91C594.603 1071.27 588.115 1073.94 580.5 1073.94C572.885 1073.94 566.397 1071.27 561.038 1065.91C555.679 1060.56 553 1054.08 553 1046.47ZM558.077 1126.07C558.077 1115.02 567.031 1106.07 578.077 1106.07H582.923C593.969 1106.07 602.923 1115.02 602.923 1126.07V1305C602.923 1316.05 593.969 1325 582.923 1325H578.077C567.031 1325 558.077 1316.05 558.077 1305V1126.07Z" fill="#45474B"/>
<path d="M663 953.909C663 927.82 672.257 905.48 690.77 886.888C709.283 868.296 731.678 859 757.955 859L899.493 859C930.22 859 956.509 866.753 978.359 882.258C987.315 888.614 999.709 888.529 1008.64 882.133C1030.16 866.711 1056.49 859 1087.61 859L1157.48 859C1188.24 859 1216.31 866.647 1241.69 881.94C1267.07 896.934 1287.23 917.175 1302.16 942.664C1317.39 967.853 1325 995.891 1325 1026.78L1325 1305C1325 1316.05 1316.05 1325 1305 1325L1250.94 1325C1239.89 1325 1230.94 1316.05 1230.94 1305L1230.94 1028.13C1230.94 1007.44 1223.77 989.894 1209.44 975.5C1195.11 960.806 1177.79 953.459 1157.48 953.459L1087.61 953.459C1074.47 953.459 1063.28 957.658 1054.02 966.054C1044.76 974.151 1040.13 984.046 1040.13 995.741L1040.13 1305C1040.13 1316.05 1031.18 1325 1020.13 1325L965.627 1325C954.581 1325 945.627 1316.05 945.627 1305L945.627 995.741C945.627 984.046 941.148 974.151 932.189 966.054C923.231 957.658 912.332 953.459 899.493 953.459L777.507 953.459C766.462 953.459 757.507 962.414 757.507 973.459L757.507 1305C757.507 1316.05 748.553 1325 737.507 1325L683 1325C671.954 1325 663 1316.05 663 1305L663 953.909Z" fill="#45474B"/>
<path d="M1093.06 408.281C1095.9 400.317 1103.44 395 1111.9 395H1161.1C1169.56 395 1177.1 400.317 1179.94 408.281L1315.47 788.281C1320.12 801.305 1310.46 815 1296.63 815H1272.83C1264.4 815 1256.88 809.716 1254.01 801.789L1217.93 701.798C1215.07 693.87 1207.55 688.586 1199.12 688.586H1124.8C1110.94 688.586 1101.29 674.837 1105.99 661.802L1113.93 639.777C1116.79 631.847 1124.31 626.561 1132.74 626.561H1162.32C1176.18 626.561 1185.83 612.808 1181.13 599.772L1155.44 528.587C1149.08 510.979 1124.19 510.97 1117.82 528.573L1018.99 801.803C1016.13 809.723 1008.61 815 1000.18 815H976.367C962.54 815 952.885 801.305 957.53 788.281L1093.06 408.281Z" fill="#45474B"/>
<path d="M3.44117e-05 20C3.48945e-05 8.95429 8.95434 -1.55734e-05 20 -1.55675e-05L334.259 -1.53987e-05C366.978 -1.53811e-05 396.748 7.86074 423.572 23.5823C450.69 39.3038 472.207 60.4114 488.124 86.905C504.041 113.108 512 142.367 512 174.684L512 448.063C512 479.797 504.041 508.766 488.124 534.968C472.207 561.171 450.69 582.133 423.572 597.854C396.748 613.285 366.978 621 334.259 621L20 621C8.95433 621 8.53258e-06 612.046 9.0154e-06 601L3.44117e-05 20ZM334.259 528.854C357.84 528.854 377.884 520.848 394.39 504.835C410.897 488.823 419.15 469.462 419.15 446.753L419.15 174.684C419.15 151.684 410.897 132.177 394.39 116.165C377.884 99.8607 357.84 91.7088 334.259 91.7088L113.292 91.7088C102.246 91.7088 93.2919 100.663 93.2919 111.709L93.2919 508.854C93.2919 519.9 102.246 528.854 113.292 528.854L334.259 528.854Z" fill="#45474B"/>
<path d="M553 488.898C553 465.359 561.512 445.391 578.536 428.993C595.56 412.331 615.988 404 639.821 404L809.536 404C831.274 404 850.917 409.422 868.464 420.265C886.274 430.845 900.417 445.259 910.893 463.508C921.631 481.492 927 501.46 927 523.412L927 534.917C927 556.604 921.631 576.44 910.893 594.425C900.417 612.145 886.274 626.427 868.464 637.27C850.917 647.849 831.274 653.139 809.536 653.139L703.036 653.139C691.99 653.139 683.036 644.185 683.036 633.139L683.036 589.828C683.036 578.782 691.99 569.828 703.036 569.828L810.321 569.828C819.75 569.828 827.738 566.39 834.286 559.514C841.095 552.637 844.5 544.306 844.5 534.52L844.5 523.412C844.5 513.362 841.095 504.899 834.286 498.022C827.738 491.146 819.75 487.708 810.321 487.708L655.893 487.708C644.847 487.708 635.893 496.662 635.893 507.708L635.893 698.762C635.893 707.754 638.905 715.424 644.929 721.771C650.952 728.119 658.286 731.292 666.929 731.292L878.321 731.292C889.367 731.292 898.321 740.247 898.321 751.292L898.321 795C898.321 806.046 889.367 815 878.321 815L666.929 815C645.976 815 626.857 809.843 609.571 799.528C592.286 788.949 578.536 774.931 568.321 757.476C558.107 739.756 553 720.317 553 699.158L553 488.898Z" fill="#45474B"/>
<path d="M594.756 5.99999C603.21 5.99999 610.752 11.3163 613.593 19.2794L693.264 242.589C699.584 260.302 724.637 260.292 730.944 242.575L810.414 19.2937C813.251 11.3233 820.796 5.99999 829.256 5.99999L842.598 5.99999C856.435 5.99999 866.091 19.7129 861.428 32.7402L749.39 345.74C746.544 353.693 739.007 359 730.56 359H693.44C684.993 359 677.456 353.693 674.61 345.74L562.572 32.7402C557.909 19.713 567.565 5.99999 581.402 5.99999L594.756 5.99999Z" fill="#45474B"/>
</mask>
<g mask="url(#mask0_4_29)">
<g filter="url(#filter0_f_4_29)">
<circle cx="1156" cy="1049" r="444" fill="#FFCDEA"/>
<circle cx="231" cy="389" r="640" fill="#86469C"/>
<circle cx="343" cy="1130" r="584" fill="#BC7FCD"/>
<circle cx="853.5" cy="353.5" r="505.5" fill="#FB9AD1"/>
</g>
</g>
<defs>
<filter id="filter0_f_4_29" x="-762.8" y="-604.8" width="2716.6" height="2672.6" filterUnits="userSpaceOnUse" color-interpolation-filters="sRGB">
<feFlood flood-opacity="0" result="BackgroundImageFix"/>
<feBlend mode="normal" in="SourceGraphic" in2="BackgroundImageFix" result="shape"/>
<feGaussianBlur stdDeviation="176.9" result="effect1_foregroundBlur_4_29"/>
</filter>
</defs>
</svg>
